<svg width="30" height="30" viewBox="0 0 30 30" fill="none" xmlns="http://www.w3.org/2000/svg">
<g clip-path="url(#clip0_216_536)">
<path fill-rule="evenodd" clip-rule="evenodd" d="M0 15C0 6.71575 6.71575 0 15 0C23.2843 0 30 6.71575 30 15C30 23.2843 23.2843 30 15 30C6.71575 30 0 23.2843 0 15ZM17.442 8.85094C18.0147 8.11162 18.4489 7.06663 18.2918 6C17.3557 6.06505 16.2616 6.66394 15.6233 7.44456C15.0413 8.15187 14.5629 9.20406 14.7498 10.2252C15.7731 10.2572 16.8293 9.64394 17.442 8.85094ZM21.9919 11.8918C19.0442 13.5171 19.5214 17.7516 22.5 18.8844C22.0905 19.7971 21.8934 20.205 21.3659 21.0135C20.6299 22.1421 19.5922 23.5474 18.3052 23.5578C17.7761 23.5635 17.4289 23.4033 17.0544 23.2306C16.6204 23.0304 16.1499 22.8134 15.3174 22.8184C14.4896 22.8228 14.0116 23.0373 13.5717 23.2345C13.1875 23.4069 12.8324 23.5661 12.2987 23.5609C11.0127 23.5495 10.0294 22.2815 9.2935 21.1529C7.23456 17.9994 7.018 14.2977 8.28762 12.3286C9.19088 10.9305 10.6155 10.1127 11.9539 10.1127C12.667 10.1127 13.2416 10.3187 13.7892 10.5151C14.2876 10.6937 14.7635 10.8644 15.3009 10.8644C15.7983 10.8644 16.2072 10.7087 16.6532 10.5387C17.1885 10.3349 17.7773 10.1106 18.6367 10.1106C19.8294 10.1106 21.0928 10.7642 21.9919 11.8918Z" fill="white"/>
</g>
<defs>
<clipPath id="clip0_216_536">
<rect width="30" height="30" fill="white"/>
</clipPath>
</defs>
</svg>
