<svg width="45" height="30" viewBox="0 0 45 30" fill="none" xmlns="http://www.w3.org/2000/svg">
<g clip-path="url(#clip0_134_198)">
<path d="M0.548424 16.2409L13.7099 29.4516C14.064 29.7911 14.537 29.9785 15.0275 29.9737C15.5181 29.9688 15.9873 29.7721 16.3346 29.4257C16.682 29.0793 16.8799 28.6106 16.8861 28.1201C16.8922 27.6295 16.7061 27.1561 16.3675 26.801L6.47531 16.8737H43.1193C43.375 16.8894 43.6312 16.8525 43.8722 16.7654C44.1131 16.6784 44.3337 16.5429 44.5203 16.3674C44.7069 16.1919 44.8556 15.98 44.9573 15.7448C45.0589 15.5097 45.1113 15.2562 45.1113 15C45.1113 14.7438 45.0589 14.4903 44.9573 14.2552C44.8556 14.02 44.7069 13.8082 44.5203 13.6326C44.3337 13.4571 44.1131 13.3216 43.8722 13.2346C43.6312 13.1475 43.375 13.1106 43.1193 13.1263H6.32766L16.3605 3.206C16.5513 3.03633 16.7056 2.8295 16.8138 2.59817C16.9219 2.36683 16.9818 2.11586 16.9896 1.8606C16.9975 1.60534 16.9531 1.35117 16.8593 1.11363C16.7656 0.876099 16.6243 0.660196 16.4442 0.479137C16.2641 0.298079 16.0489 0.155674 15.8119 0.0606327C15.5749 -0.0344086 15.3209 -0.0800838 15.0656 -0.0736008C14.8104 -0.0671177 14.5591 -0.00860977 14.3272 0.0983391C14.0953 0.205288 13.8876 0.358431 13.7169 0.548397L0.555455 13.5833C0.380714 13.7577 0.24208 13.9648 0.14749 14.1928C0.0529002 14.4208 0.00421143 14.6653 0.00421143 14.9121C0.00421143 15.159 0.0529002 15.4034 0.14749 15.6314C0.24208 15.8594 0.380714 16.0666 0.555455 16.2409H0.548424Z" fill="white"/>
</g>
<defs>
<clipPath id="clip0_134_198">
<rect width="30" height="44.9965" fill="white" transform="matrix(0 -1 1 0 0 30)"/>
</clipPath>
</defs>
</svg>
