<svg width="30" height="30" viewBox="0 0 30 30" fill="none" xmlns="http://www.w3.org/2000/svg">
<g clip-path="url(#clip0_208_511)">
<path d="M15 0C6.75586 0 0 6.75586 0 15C0 23.2441 6.75586 30 15 30C23.2441 30 30 23.2441 30 15C30 6.75586 23.2441 0 15 0Z" fill="#F3F5F9"/>
<path d="M30 15C30 23.2441 23.2441 30 15 30V0C23.2441 0 30 6.75586 30 15Z" fill="#E1E6F0"/>
<path d="M15 28.2422C22.3135 28.2422 28.2422 22.3135 28.2422 15C28.2422 7.68654 22.3135 1.75781 15 1.75781C7.68654 1.75781 1.75781 7.68654 1.75781 15C1.75781 22.3135 7.68654 28.2422 15 28.2422Z" fill="#FF7F40"/>
<path d="M28.2422 15C28.2422 22.2773 22.2773 28.2422 15 28.2422V1.75781C22.2773 1.75781 28.2422 7.72266 28.2422 15Z" fill="#F25A3C"/>
<path d="M22.0312 12.3633H17.6367V7.96875C17.6367 7.4765 17.2501 7.08984 16.7578 7.08984H13.2422C12.7499 7.08984 12.3633 7.4765 12.3633 7.96875V12.3633H7.96875C7.4765 12.3633 7.08984 12.7499 7.08984 13.2422V16.7578C7.08984 17.2499 7.4765 17.6367 7.96875 17.6367H12.3633V22.0312C12.3633 22.5234 12.7499 22.9102 13.2422 22.9102H16.7578C17.2501 22.9102 17.6367 22.5234 17.6367 22.0312V17.6367H22.0312C22.5235 17.6367 22.9102 17.2499 22.9102 16.7578V13.2422C22.9102 12.7499 22.5235 12.3633 22.0312 12.3633Z" fill="#F3F5F9"/>
<path d="M22.9102 13.2422V16.7578C22.9102 17.2499 22.5235 17.6367 22.0312 17.6367H17.6367V22.0312C17.6367 22.5234 17.2501 22.9102 16.7578 22.9102H15V7.08984H16.7578C17.2501 7.08984 17.6367 7.4765 17.6367 7.96875V12.3633H22.0312C22.5235 12.3633 22.9102 12.7499 22.9102 13.2422Z" fill="#E1E6F0"/>
</g>
<defs>
<clipPath id="clip0_208_511">
<rect width="30" height="30" fill="white"/>
</clipPath>
</defs>
</svg>
