<svg width="30" height="30" viewBox="0 0 30 30" fill="none" xmlns="http://www.w3.org/2000/svg">
<path d="M18.3542 29.501H5.54212C4.58538 29.501 3.81021 28.7254 3.81021 27.7691V1.73191C3.81021 0.775674 4.58538 0 5.54212 0H18.3542C19.311 0 20.0861 0.775674 20.0861 1.73191V27.7686C20.0866 28.7254 19.311 29.501 18.3542 29.501Z" fill="#545E73"/>
<path d="M20.0866 3.05188H3.81021V23.3974H20.0866V3.05188Z" fill="#8697CB"/>
<path d="M11.9484 27.9752C12.7912 27.9752 13.4743 27.292 13.4743 26.4493C13.4743 25.6065 12.7912 24.9233 11.9484 24.9233C11.1057 24.9233 10.4225 25.6065 10.4225 26.4493C10.4225 27.292 11.1057 27.9752 11.9484 27.9752Z" fill="#323A45"/>
<path d="M11.9484 2.03461H9.91388C9.6326 2.03461 9.40524 1.80725 9.40524 1.52597C9.40524 1.2447 9.6326 1.01733 9.91388 1.01733H11.9484C12.2297 1.01733 12.4571 1.2447 12.4571 1.52597C12.4571 1.80725 12.2292 2.03461 11.9484 2.03461Z" fill="#323A45"/>
<path d="M13.983 2.03461H13.4743C13.1931 2.03461 12.9657 1.80725 12.9657 1.52597C12.9657 1.2447 13.1931 1.01733 13.4743 1.01733H13.983C14.2643 1.01733 14.4916 1.2447 14.4916 1.52597C14.4916 1.80725 14.2637 2.03461 13.983 2.03461Z" fill="#323A45"/>
<path d="M20.0867 21.4549C20.5795 20.3445 21.668 19.3186 22.9778 19.3186C24.7412 19.3186 26.0113 20.7535 26.171 22.4635C26.171 22.4635 26.2575 22.8882 26.0677 23.6522C25.8093 24.6929 25.2025 25.6176 24.3836 26.3231L20.0872 29.9995L15.7907 26.3226C14.9718 25.6171 14.365 24.6924 14.1066 23.6517C13.9169 22.8877 14.0033 22.463 14.0033 22.463C14.163 20.753 15.4331 19.3181 17.1966 19.3181C18.5048 19.3186 19.5938 20.3445 20.0867 21.4549Z" fill="#ED7161"/>
</svg>
