<svg width="30" height="30" viewBox="0 0 30 30" fill="none" xmlns="http://www.w3.org/2000/svg">
<path d="M18.255 29.501H5.44294C4.48619 29.501 3.71103 28.7254 3.71103 27.7691V1.73191C3.71103 0.775674 4.4867 0 5.44294 0H18.255C19.2118 0 19.9869 0.775674 19.9869 1.73191V27.7686C19.9875 28.7254 19.2118 29.501 18.255 29.501Z" fill="#545E73"/>
<path d="M19.9875 3.05188H3.71103V23.3974H19.9875V3.05188Z" fill="#8697CB"/>
<path d="M11.8492 27.9752C12.692 27.9752 13.3752 27.292 13.3752 26.4493C13.3752 25.6065 12.692 24.9233 11.8492 24.9233C11.0065 24.9233 10.3233 25.6065 10.3233 26.4493C10.3233 27.292 11.0065 27.9752 11.8492 27.9752Z" fill="#323A45"/>
<path d="M11.8493 2.03461H9.8147C9.53342 2.03461 9.30606 1.80725 9.30606 1.52597C9.30606 1.2447 9.53342 1.01733 9.8147 1.01733H11.8493C12.1305 1.01733 12.3579 1.2447 12.3579 1.52597C12.3579 1.80725 12.1305 2.03461 11.8493 2.03461Z" fill="#323A45"/>
<path d="M13.8838 2.03461H13.3752C13.0939 2.03461 12.8665 1.80725 12.8665 1.52597C12.8665 1.2447 13.0939 1.01733 13.3752 1.01733H13.8838C14.1651 1.01733 14.3924 1.2447 14.3924 1.52597C14.3924 1.80725 14.1651 2.03461 13.8838 2.03461Z" fill="#323A45"/>
<path d="M20.1858 30C23.5568 30 26.2895 27.2673 26.2895 23.8964C26.2895 20.5254 23.5568 17.7927 20.1858 17.7927C16.8149 17.7927 14.0822 20.5254 14.0822 23.8964C14.0822 27.2673 16.8149 30 20.1858 30Z" fill="#26B999"/>
<path d="M23.5281 20.9361C23.2966 20.7753 22.9803 20.8323 22.82 21.0632L19.9737 25.1527L17.9651 23.5037C17.7484 23.3251 17.4275 23.3572 17.2494 23.5744C17.0709 23.7916 17.1024 24.112 17.3201 24.29L19.7545 26.2885C19.846 26.3632 19.96 26.4039 20.077 26.4039C20.0998 26.4039 20.1232 26.4024 20.1466 26.3993C20.287 26.3795 20.4132 26.3027 20.4945 26.1862L23.6552 21.6446C23.8154 21.4137 23.7585 21.0963 23.5281 20.9361Z" fill="white"/>
</svg>
