<svg width="30" height="30" viewBox="0 0 30 30" fill="none" xmlns="http://www.w3.org/2000/svg">
<path d="M22.8 12.12C22.3 12.12 21.84 12.18 21.38 12.32L20.66 10.38H20.74C21.58 10.38 22.28 9.70005 22.28 8.84005C22.28 7.98005 21.6 7.30005 20.74 7.30005H19.1C18.82 7.30005 18.6 7.52005 18.6 7.80005C18.6 8.08005 18.82 8.30005 19.1 8.30005H20.74C21.04 8.30005 21.28 8.54005 21.28 8.84005C21.28 9.14005 21.04 9.38005 20.74 9.38005H11.08L10.78 8.82005H12.24C12.52 8.82005 12.74 8.60005 12.74 8.32005C12.74 8.04005 12.52 7.82005 12.24 7.82005H9.57997L9.07997 7.44005C8.85997 7.28005 8.53997 7.30005 8.37997 7.52005C8.21997 7.74005 8.23997 8.06005 8.45997 8.22005L9.09997 8.72005C9.17997 8.78005 9.29997 8.82005 9.39997 8.82005H9.69997C9.69997 8.90005 9.71997 9.00005 9.75997 9.08005L10.2 9.90005L9.13997 12.4C8.59997 12.22 8.03997 12.12 7.43997 12.12C4.51997 12.12 2.15997 14.5 2.15997 17.4C2.15997 20.32 4.53997 22.68 7.43997 22.68C10.12 22.68 12.34 20.66 12.68 18.0601H13.24C13.42 18.76 13.96 19.3 14.64 19.48V20.08C14.64 20.36 14.86 20.58 15.14 20.58H16.6C16.88 20.58 17.1 20.36 17.1 20.08C17.1 19.8 16.88 19.58 16.6 19.58H15.64V19.48C16.48 19.26 17.1 18.5 17.1 17.58C17.1 17.08 16.9 16.62 16.58 16.26L19.82 10.96L20.44 12.62C18.7 13.48 17.5 15.28 17.5 17.36C17.5 20.28 19.88 22.64 22.78 22.64C25.68 22.64 28.06 20.26 28.06 17.36C28.1 14.5 25.72 12.12 22.8 12.12ZM14.62 15.74L14.32 15.2H14.66V15.72C14.64 15.74 14.64 15.74 14.62 15.74ZM15.66 15.74V14.72C15.66 14.44 15.44 14.22 15.16 14.22H13.78L11.62 10.38H19.06L15.76 15.78C15.72 15.76 15.7 15.74 15.66 15.74ZM10.84 11L13.76 16.24C13.54 16.48 13.36 16.76 13.28 17.08H12.74C12.62 15.24 11.58 13.66 10.06 12.8L10.84 11ZM11.72 17.08H8.19997L9.63997 13.74C10.82 14.44 11.62 15.66 11.72 17.08ZM7.43997 21.7C5.07997 21.7 3.15997 19.78 3.15997 17.42C3.15997 15.06 5.07997 13.14 7.43997 13.14C7.89997 13.14 8.31997 13.22 8.73997 13.34L6.99997 17.4C6.93997 17.56 6.93997 17.74 7.03997 17.88C7.13997 18.02 7.27997 18.1 7.45997 18.1H11.68C11.36 20.14 9.57997 21.7 7.43997 21.7ZM15.66 18.44V17.44C15.66 17.16 15.44 16.94 15.16 16.94C14.88 16.94 14.66 17.16 14.66 17.44V18.44C14.38 18.28 14.2 17.98 14.2 17.62C14.2 17.1 14.64 16.66 15.16 16.66C15.34 16.66 15.52 16.72 15.66 16.8C15.68 16.8 15.68 16.82 15.7 16.82H15.72C15.96 17 16.12 17.28 16.12 17.6C16.12 17.96 15.92 18.26 15.66 18.44ZM22.8 21.7C20.44 21.7 18.52 19.78 18.52 17.42C18.52 15.78 19.44 14.34 20.8 13.62L22.34 17.76C22.42 17.96 22.6 18.08 22.8 18.08C22.86 18.08 22.92 18.06 22.98 18.04C23.24 17.94 23.38 17.66 23.28 17.4L21.74 13.24C22.08 13.16 22.44 13.1 22.8 13.1C25.16 13.1 27.08 15.02 27.08 17.38C27.1 19.78 25.18 21.7 22.8 21.7Z" fill="url(#paint0_linear_137_202)"/>
<defs>
<linearGradient id="paint0_linear_137_202" x1="2.15997" y1="14.99" x2="28.0605" y2="14.99" gradientUnits="userSpaceOnUse">
<stop stop-color="#9F2FFF"/>
<stop offset="1" stop-color="#0BB1D3"/>
</linearGradient>
</defs>
</svg>
