<svg width="30" height="30" viewBox="0 0 30 30" fill="none" xmlns="http://www.w3.org/2000/svg">
<path d="M24.4 20.4C24.4 21.14 23.8 21.74 23.06 21.74C22.32 21.74 21.72 21.14 21.72 20.4C21.72 19.66 22.32 19.06 23.06 19.06C23.34 19.06 23.56 19.28 23.56 19.56C23.56 19.84 23.34 20.06 23.06 20.06C22.86 20.06 22.72 20.22 22.72 20.4C22.72 20.58 22.88 20.74 23.06 20.74C23.24 20.74 23.4 20.58 23.4 20.4C23.4 20.12 23.62 19.9 23.9 19.9C24.18 19.9 24.4 20.12 24.4 20.4ZM7.59999 19.9C7.31999 19.9 7.09999 20.12 7.09999 20.4C7.09999 20.6 6.93999 20.74 6.75999 20.74C6.55999 20.74 6.41999 20.58 6.41999 20.4C6.41999 20.22 6.57999 20.06 6.75999 20.06C7.03999 20.06 7.25999 19.84 7.25999 19.56C7.25999 19.28 7.03999 19.06 6.75999 19.06C6.01999 19.06 5.41999 19.66 5.41999 20.4C5.41999 21.14 6.01999 21.74 6.75999 21.74C7.49999 21.74 8.09999 21.14 8.09999 20.4C8.09999 20.12 7.87999 19.9 7.59999 19.9ZM27.74 10.68V19.9C27.74 20.7 27.08 21.36 26.28 21.36H25.6C25.2 22.38 24.22 23.1 23.08 23.1C21.94 23.1 20.94 22.38 20.56 21.36H9.27999C8.87999 22.38 7.89999 23.1 6.75999 23.1C5.57999 23.1 4.57999 22.34 4.19999 21.3C3.95999 21.24 3.75999 21.14 3.53999 21.02C2.49999 20.48 1.85999 19.42 1.85999 18.26V10.96C1.85999 9.85998 2.73999 8.97998 3.83999 8.97998H26.06C26.98 8.97998 27.74 9.73998 27.74 10.68ZM8.45999 20.4C8.45999 19.46 7.69999 18.68 6.73999 18.68C5.79999 18.68 5.01999 19.44 5.01999 20.4C5.01999 21.36 5.77999 22.12 6.73999 22.12C7.69999 22.12 8.45999 21.34 8.45999 20.4ZM12.16 15.62H17.24V11.68H12.16V15.62ZM11.16 11.68H5.03999V14.88C5.03999 15.28 5.35999 15.62 5.77999 15.62H11.18V11.68H11.16ZM18.22 11.68V15.62H21.4C21.74 15.62 22.02 15.34 22.02 15V11.68H18.22ZM12.16 16.62V20.38H17.24V16.62H12.16ZM24.78 20.4C24.78 19.46 24.02 18.68 23.06 18.68C22.12 18.68 21.34 19.44 21.34 20.4C21.34 21.36 22.1 22.12 23.06 22.12C24 22.12 24.78 21.34 24.78 20.4ZM26.74 19.9V16.62H25.14C24.18 16.62 23.4 15.84 23.4 14.88V11.52C23.4 11.06 23.78 10.68 24.24 10.68H26.74C26.74 10.3 26.42 9.97998 26.04 9.97998H3.81999C3.27999 9.97998 2.83999 10.42 2.83999 10.96V18.26C2.83999 19.06 3.27999 19.78 3.97999 20.14C3.99999 20.16 4.01999 20.16 4.03999 20.18C4.15999 18.8 5.31999 17.7 6.73999 17.7C8.21999 17.7 9.43999 18.9 9.45999 20.38H11.16V16.62H5.75999C4.79999 16.62 4.01999 15.84 4.01999 14.88V11.52C4.01999 11.06 4.39999 10.68 4.85999 10.68H22.36C22.72 10.68 23.02 10.98 23.02 11.34V14.98C23.02 15.88 22.28 16.6 21.4 16.6H18.22V20.36H20.34C20.36 18.88 21.56 17.68 23.06 17.68C24.56 17.68 25.76 18.88 25.78 20.36H26.28C26.52 20.38 26.74 20.16 26.74 19.9ZM24.4 11.68V14.88C24.4 15.28 24.72 15.62 25.14 15.62H26.6V11.68H24.4Z" fill="url(#paint0_linear_137_222)"/>
<defs>
<linearGradient id="paint0_linear_137_222" x1="1.85999" y1="16.04" x2="27.74" y2="16.04" gradientUnits="userSpaceOnUse">
<stop stop-color="#9F2FFF"/>
<stop offset="1" stop-color="#0BB1D3"/>
</linearGradient>
</defs>
</svg>
