<svg width="30" height="30" viewBox="0 0 30 30" fill="none" xmlns="http://www.w3.org/2000/svg">
<path d="M27.0703 20.373C26.4551 19.5996 25.8457 18.7265 24.6328 18.9023C24.3984 18.9375 24.2344 18.8027 24.0703 18.6621C22.084 16.9863 19.9102 16.4941 17.3613 17.2851C15.7031 17.8008 13.998 17.8418 12.8203 16.1074C12.5859 15.7617 12.2402 15.4863 11.9355 15.1933C11.3262 14.6133 10.5937 14.4609 9.97266 15.0234C9.35156 15.5859 8.77734 14.9883 8.16797 15.1348C7.54102 15.2871 7.33008 16.1836 6.52734 15.9316C5.625 15.9082 4.95117 16.2832 4.62891 17.0332C4.27148 17.8594 4.49414 18.5859 5.09766 19.2012C6.14062 20.2617 7.27148 21.2519 8.24414 22.3711C9.35742 23.6543 10.6816 24.1406 12.3516 24.0703C14.291 23.9824 16.2422 24.041 18.1875 24.0586C18.5391 24.0644 19.0957 23.9531 19.0371 24.5801C18.9434 25.5527 19.5996 26.0683 20.1914 26.6308C20.9941 27.3984 21.8906 27.416 22.6875 26.6426C24.082 25.289 25.4648 23.918 26.8242 22.5293C27.4688 21.8789 27.5801 21.0176 27.0703 20.373ZM10.4707 15.7617C10.6875 15.5976 10.9043 15.5859 11.1445 15.7265C11.3555 15.8496 12.4688 17.0683 12.6914 17.4375C11.9063 17.5254 10.5938 16.7988 10.3594 16.1543C10.3008 15.9902 10.3359 15.8672 10.4707 15.7617ZM8.00391 16.3183C8.26758 15.9961 8.66602 15.914 8.98242 16.166C9.45117 16.541 9.86719 16.998 10.2832 17.4375C10.4121 17.5781 9.86719 18.3457 9.60352 18.3633C9.50977 18.2871 9.39258 18.1992 9.28711 18.0937C8.94141 17.7539 8.5957 17.414 8.25 17.0683C8.04492 16.8633 7.72266 16.664 8.00391 16.3183ZM19.4297 23.3965C16.998 22.8047 14.5313 23.2031 12.0879 23.1445C10.8867 23.1152 9.92578 22.834 9.09961 21.9199C8.08008 20.7949 6.97266 19.7519 5.88867 18.6855C5.39648 18.1992 5.12695 17.6777 5.70117 17.1152C6.24023 16.5879 6.76758 16.8281 7.19531 17.3203C8.05664 18.3164 9.23438 19.0371 9.76172 20.3437C9.98438 20.8945 10.5586 21.1875 11.1738 21.1992C12.3574 21.2226 13.5469 21.2109 14.7305 21.2051C15.0469 21.2051 15.3926 21.1875 15.3984 20.7715C15.3984 20.3027 15.0234 20.291 14.6777 20.291C14.1328 20.291 13.582 20.291 13.0371 20.291C12.457 20.291 11.8828 20.3144 11.3027 20.2851C10.7344 20.2558 10.377 19.9101 10.3945 19.3476C10.4062 18.8027 10.7402 18.4453 11.3262 18.4336C12.6035 18.4219 13.8809 18.3984 15.1582 18.4219C16.2012 18.4453 17.2207 18.334 18.2168 18.0234C20.0742 17.4375 21.6797 17.9883 23.1738 19.0898C23.4844 19.3183 23.6543 19.4883 23.2852 19.8515C22.1719 20.9297 21.0879 22.0371 19.9863 23.1269C19.8281 23.291 19.6875 23.4609 19.4297 23.3965ZM26.0391 21.9961C24.7266 23.3027 23.4141 24.6094 22.1133 25.9277C21.5566 26.4902 21.1055 26.3086 20.6543 25.8047C20.2383 25.3476 19.5586 24.9375 20.25 24.2285C21.627 22.8164 23.0332 21.4277 24.4336 20.039C24.5566 19.916 24.7324 19.8515 24.8848 19.7637C25.5938 19.9277 25.9922 20.4375 26.3379 20.959C26.5957 21.3457 26.3438 21.6973 26.0391 21.9961ZM24.9141 10.8105C23.7363 9.62108 22.5293 8.46678 21.3809 7.24803C20.5078 6.32225 19.4824 5.91209 18.2109 5.92967C16.1133 5.96483 14.0156 5.94139 11.918 5.93553C11.3496 5.93553 10.9395 5.95311 10.916 5.08006C10.8926 3.99608 10.002 3.32811 9.06445 2.91209C8.20898 2.53124 7.57617 3.03514 6.99023 3.63866C5.91211 4.75194 4.80469 5.83592 3.70312 6.93163C2.24414 8.38475 2.24414 9.06444 3.70312 10.4883C4.14258 10.916 4.62891 11.1797 5.25 11.0976C5.51953 11.0625 5.70703 11.1387 5.90625 11.3086C7.91602 13.0195 10.1309 13.5058 12.6973 12.6855C14.3789 12.1523 16.0605 12.2168 17.2207 13.9277C17.4375 14.25 17.7656 14.5019 18.0469 14.7715C18.6855 15.3867 19.4355 15.498 20.0977 14.9238C20.6953 14.4082 21.2344 14.9765 21.8145 14.8535C22.4531 14.7187 22.6523 13.8223 23.4609 14.0508C24.334 14.0859 25.0547 13.7051 25.3594 12.9726C25.7109 12.164 25.5293 11.4316 24.9141 10.8105ZM5.76562 9.78514C5.13867 10.4355 4.6875 10.1894 4.16602 9.66209C3.65039 9.14061 3.24023 8.68358 3.94922 7.99803C5.25586 6.72655 6.5332 5.43163 7.81641 4.1367C8.10937 3.84374 8.43164 3.53905 8.83594 3.80272C9.36328 4.14842 9.84961 4.55858 10.0254 5.08006C10.002 5.51952 9.80859 5.71288 9.61523 5.90624C8.33203 7.1953 7.03125 8.47264 5.76562 9.78514ZM19.5117 14.2441C19.2598 14.4258 19.002 14.4023 18.7734 14.1973C18.6621 14.0976 18.5625 13.9805 18.4453 13.8867C18.0117 13.5234 17.5781 13.1601 17.1387 12.7969C17.1973 12.7148 17.2617 12.6269 17.3203 12.5449C18.1641 12.457 19.1953 13.0254 19.582 13.7695C19.6758 13.957 19.6758 14.1211 19.5117 14.2441ZM21.8086 13.8398C21.5273 13.998 21.2109 14.0332 20.9648 13.8105C20.5371 13.4297 20.1445 13.0137 19.7461 12.6035C19.6406 12.498 19.5293 12.3691 19.6992 12.2285C19.9277 12.0351 20.1387 11.8183 20.3906 11.6601C20.502 11.5898 22.1133 13.2598 22.1191 13.4238C22.1016 13.6289 21.9668 13.7519 21.8086 13.8398ZM24.3105 12.8672C23.7305 13.459 23.1973 13.1133 22.7578 12.6152C21.8906 11.625 20.7305 10.8984 20.2148 9.58592C19.998 9.02928 19.3945 8.79491 18.7734 8.78905C17.6191 8.77733 16.4648 8.78319 15.3105 8.78319C14.9941 8.78319 14.6484 8.78905 14.625 9.19334C14.6016 9.66209 14.9707 9.69139 15.3223 9.69725C16.3887 9.70311 17.4492 9.70897 18.5156 9.69725C19.1602 9.69139 19.6055 9.94334 19.6172 10.6172C19.6289 11.3027 19.166 11.5605 18.5332 11.5605C17.7129 11.5605 16.8926 11.5605 16.0723 11.5605C14.4551 11.4902 12.873 11.6367 11.291 12.0644C9.60352 12.5215 8.13281 11.8652 6.79688 10.8515C6.49219 10.623 6.4043 10.459 6.7207 10.1484C7.82812 9.06444 8.91797 7.96288 10.0137 6.86717C10.1602 6.72069 10.3008 6.54491 10.5527 6.6035C13.043 7.166 15.5742 6.76756 18.082 6.83788C19.1953 6.86717 20.0625 7.18358 20.8242 7.99803C21.8789 9.13475 22.998 10.207 24.1055 11.291C24.5918 11.7773 24.8496 12.3105 24.3105 12.8672Z" fill="url(#paint0_linear_139_229)"/>
<defs>
<linearGradient id="paint0_linear_139_229" x1="2.60889" y1="14.9973" x2="27.3905" y2="14.9973" gradientUnits="userSpaceOnUse">
<stop stop-color="#9F2FFF"/>
<stop offset="1" stop-color="#0BB1D3"/>
</linearGradient>
</defs>
</svg>
