<svg width="30" height="30" viewBox="0 0 30 30" fill="none" xmlns="http://www.w3.org/2000/svg">
<path d="M15.625 8.875L7 16V23.125C7 23.375 7.125 23.625 7.25 23.75C7.5 24 7.625 24 7.875 24H13.75V18.25H17.5V24H23.25C23.5 24 23.75 23.875 23.875 23.75C24.125 23.5 24.125 23.375 24.125 23.125V16V15.875L15.625 8.875ZM27.5 14.375L24.25 11.625V5.5C24.25 5.375 24.25 5.25 24.125 5.125C24 5 23.875 5 23.75 5H20.875C20.75 5 20.625 5 20.5 5.125C20.375 5.25 20.375 5.375 20.375 5.5V8.375L16.75 5.375C16.5 5.125 16.125 5 15.625 5C15.125 5 14.75 5.125 14.5 5.375L3.75 14.375C3.625 14.5 3.625 14.5 3.625 14.75C3.625 14.875 3.625 15 3.75 15.125L4.625 16.25C4.625 16.25 4.75 16.25 4.875 16.375C5 16.375 5.125 16.375 5.25 16.25L15.625 7.625L26 16.25C26.125 16.375 26.125 16.375 26.375 16.375C26.5 16.375 26.625 16.25 26.75 16.25L27.625 15.125C27.75 15 27.75 14.875 27.75 14.75C27.625 14.625 27.625 14.5 27.5 14.375Z" fill="url(#paint0_linear_135_262)"/>
<defs>
<linearGradient id="paint0_linear_135_262" x1="3.55762" y1="14.6319" x2="27.6985" y2="14.6319" gradientUnits="userSpaceOnUse">
<stop stop-color="#1245C6"/>
<stop offset="1" stop-color="#9909B7"/>
</linearGradient>
</defs>
</svg>
