<svg width="30" height="30" viewBox="0 0 30 30" fill="none" xmlns="http://www.w3.org/2000/svg">
<path d="M28.6219 14.5031L24.4641 10.3453V3.97498C24.4616 3.79012 24.3864 3.61368 24.2548 3.48384C24.1232 3.354 23.9458 3.28121 23.7609 3.28123H19.8188C19.6323 3.28123 19.4534 3.3553 19.3216 3.48717C19.1897 3.61903 19.1156 3.79787 19.1156 3.98435V5.00623L15.4969 1.3781C15.3622 1.25188 15.1846 1.18164 15 1.18164C14.8154 1.18164 14.6378 1.25188 14.5031 1.3781L1.37813 14.5031C1.28214 14.6023 1.21723 14.7273 1.1914 14.8629C1.16557 14.9985 1.17994 15.1387 1.23274 15.2662C1.28554 15.3937 1.37446 15.503 1.48858 15.5806C1.60269 15.6582 1.73701 15.7008 1.875 15.7031H3.92344V28.125C3.92344 28.3115 3.99752 28.4903 4.12938 28.6222C4.26124 28.754 4.44008 28.8281 4.62656 28.8281H11.7563C11.9427 28.8281 12.1216 28.754 12.2534 28.6222C12.3853 28.4903 12.4594 28.3115 12.4594 28.125V20.3062H17.5406V28.125C17.5406 28.3115 17.6147 28.4903 17.7466 28.6222C17.8784 28.754 18.0573 28.8281 18.2437 28.8281H25.3734C25.5599 28.8281 25.7388 28.754 25.8706 28.6222C26.0025 28.4903 26.0766 28.3115 26.0766 28.125V15.7031H28.125C28.263 15.7008 28.3973 15.6582 28.5114 15.5806C28.6255 15.503 28.7145 15.3937 28.7673 15.2662C28.8201 15.1387 28.8344 14.9985 28.8086 14.8629C28.7828 14.7273 28.7179 14.6023 28.6219 14.5031ZM25.3734 14.2969C25.187 14.2969 25.0081 14.3709 24.8763 14.5028C24.7444 14.6347 24.6703 14.8135 24.6703 15V27.4219H18.9469V19.6031C18.9469 19.4166 18.8728 19.2378 18.7409 19.1059C18.6091 18.9741 18.4302 18.9 18.2437 18.9H11.7563C11.5698 18.9 11.3909 18.9741 11.2591 19.1059C11.1272 19.2378 11.0531 19.4166 11.0531 19.6031V27.4219H5.32969V15C5.32969 14.8135 5.25561 14.6347 5.12375 14.5028C4.99189 14.3709 4.81304 14.2969 4.62656 14.2969H3.57188L15 2.86873L19.3219 7.1906C19.4049 7.27133 19.5064 7.33046 19.6176 7.36281C19.7288 7.39515 19.8462 7.39973 19.9596 7.37613C20.073 7.35253 20.1788 7.30148 20.2678 7.22746C20.3569 7.15343 20.4264 7.05869 20.4703 6.95154C20.5278 6.19831 20.545 5.44254 20.5219 4.68748H23.0578V10.6359C23.0609 10.8217 23.1347 10.9994 23.2641 11.1328L26.4281 14.2969H25.3734Z" fill="url(#paint0_linear_135_263)"/>
<defs>
<linearGradient id="paint0_linear_135_263" x1="1.17656" y1="15.0047" x2="28.8281" y2="15.0047" gradientUnits="userSpaceOnUse">
<stop stop-color="#17A6D7"/>
<stop offset="1" stop-color="#9D31FE"/>
</linearGradient>
</defs>
</svg>
