<svg width="30" height="30" viewBox="0 0 30 30" fill="none" xmlns="http://www.w3.org/2000/svg">
<g clip-path="url(#clip0_139_274)">
<path d="M30 15.3574C29.4667 15.9827 28.76 16.1787 27.9814 16.1907C27.2027 16.2027 26.4307 16.2121 25.6574 16.1907C24.7334 16.1601 24.2227 15.6574 24.2454 14.8667C24.2654 14.1294 24.7374 13.7334 25.656 13.7201C26.608 13.7054 27.5614 13.7201 28.5134 13.7134C29.1294 13.7134 29.64 13.9081 30 14.4281V15.3574Z" fill="url(#paint0_linear_139_274)"/>
<path d="M0 14.424C0.473333 13.8907 1.07733 13.6907 1.78267 13.7067C2.69067 13.7267 3.6 13.6987 4.508 13.72C5.248 13.736 5.65333 14.072 5.74267 14.68C5.79466 14.9805 5.72571 15.2893 5.55085 15.5391C5.376 15.7889 5.10943 15.9594 4.80933 16.0134C3.50267 16.3174 2.17467 16.28 0.857333 16.0454C0.457333 15.9747 0.214667 15.6734 0.00133333 15.3534L0 14.424Z" fill="url(#paint1_linear_139_274)"/>
<path d="M15.44 24.1801C14.24 24.2068 13.1906 24.0374 12.132 23.9334C12.0094 23.9344 11.8907 23.8908 11.7978 23.8109C11.7049 23.731 11.6441 23.6201 11.6266 23.4988C11.2266 21.5921 10.16 19.9921 9.22664 18.3334C7.39064 15.1054 8.22664 11.1481 11.2266 9.21077C13.468 7.76144 15.8493 7.72143 18.1706 9.02277C20.4373 10.2961 21.7386 12.2428 21.7586 14.9121C21.7666 15.9308 21.42 16.8814 20.9586 17.7708C20.3186 18.9881 19.6333 20.1814 18.9506 21.3708C18.5999 21.9387 18.3846 22.5797 18.3213 23.2441C18.288 23.7601 17.996 23.9988 17.512 24.0348C16.772 24.0948 16.0493 24.2548 15.44 24.1801ZM11.1026 15.9908C11.7693 13.3814 13.5026 11.7708 16.0906 10.7801C14.4493 10.3521 13.1573 10.7281 12.1053 11.7908C10.9453 12.9654 10.508 14.3694 11.1026 15.9908Z" fill="url(#paint2_linear_139_274)"/>
<path d="M14.8067 25.2201C15.6694 25.1531 16.5371 25.1911 17.3907 25.3334C18.2667 25.4987 18.4213 25.6787 18.4253 26.5627C18.4253 26.7187 18.4253 26.8734 18.4253 27.0294C18.4253 28.5387 18.4787 28.4227 17.2253 28.8187C16.9741 28.9042 16.7398 29.0333 16.5333 29.2001C15.4667 30.0307 14.524 30.0387 13.4947 29.1707C13.1427 28.8734 12.764 28.6521 12.312 28.6254C11.7293 28.5921 11.5533 28.2814 11.5747 27.7521C11.5995 27.2635 11.5995 26.774 11.5747 26.2854C11.5387 25.7001 11.8413 25.4321 12.364 25.3241C12.5565 25.272 12.7533 25.2372 12.952 25.2201C13.5653 25.2121 14.1867 25.2201 14.8067 25.2201Z" fill="url(#paint3_linear_139_274)"/>
<path d="M22.3747 21.0668C22.5416 21.1123 22.7027 21.1772 22.8547 21.2601C23.9587 21.9841 24.9293 22.8601 25.6467 23.9734C26.0467 24.5988 25.924 25.1988 25.38 25.6201C24.98 25.9268 24.5907 25.9828 24.164 25.6734C23.0373 24.8548 22.1387 23.8254 21.364 22.6774C21.1093 22.2988 21.1627 21.9241 21.3987 21.5561C21.6107 21.2321 21.9133 21.0841 22.3747 21.0668Z" fill="url(#paint4_linear_139_274)"/>
<path d="M13.8413 2.87338C13.8413 2.31738 13.8333 1.76138 13.8413 1.20672C13.8533 0.57205 14.2173 0.125383 14.7893 0.02005C15.3613 -0.0852834 15.856 0.218717 16.0773 0.83605C16.4026 1.76138 16.32 2.72272 16.2413 3.67338C16.2146 4.16323 16.097 4.64383 15.8946 5.09072C15.684 5.52538 15.3733 5.86005 14.86 5.74405C14.3133 5.62138 13.8693 5.31072 13.8466 4.67738C13.8253 4.07872 13.8466 3.47738 13.8466 2.87872L13.8413 2.87338Z" fill="url(#paint5_linear_139_274)"/>
<path d="M5.23069 25.9001C4.43069 25.9001 3.84403 24.9667 4.23336 24.2921C5.00269 22.9587 6.17736 22.0027 7.44403 21.1707C7.81736 20.9254 8.17603 21.1601 8.45069 21.4441C8.72536 21.7281 8.95069 22.0721 8.71736 22.4574C7.92463 23.7965 6.84047 24.9399 5.54536 25.8027C5.44647 25.8521 5.34018 25.885 5.23069 25.9001Z" fill="url(#paint6_linear_139_274)"/>
<path d="M5.10802 4.01333C5.38935 4.01333 5.61468 4.16666 5.82935 4.32133C6.89822 5.11354 7.82858 6.07724 8.58268 7.17333C8.90002 7.624 8.86402 8.044 8.47602 8.42533C8.08802 8.80666 7.63068 8.98933 7.11335 8.61733C5.98012 7.79816 5.02032 6.76269 4.28935 5.57066C3.87468 4.90533 4.38135 4.008 5.10802 4.01333Z" fill="url(#paint7_linear_139_274)"/>
<path d="M21.192 7.69066C21.194 7.47197 21.2701 7.26042 21.408 7.09066C22.1507 6.09466 22.9507 5.15066 23.9413 4.39333C24.608 3.88799 25.0587 3.89599 25.5267 4.38266C25.9947 4.86933 25.9853 5.27466 25.5107 5.91866C24.7547 6.94399 23.7947 7.76133 22.8174 8.55866C22.5334 8.79999 22.216 8.93333 21.8467 8.72533C21.6613 8.61954 21.5046 8.4699 21.3905 8.28951C21.2764 8.10913 21.2082 7.9035 21.192 7.69066Z" fill="url(#paint8_linear_139_274)"/>
</g>
<defs>
<linearGradient id="paint0_linear_139_274" x1="24.2446" y1="14.9584" x2="30" y2="14.9584" gradientUnits="userSpaceOnUse">
<stop stop-color="#9F2FFF"/>
<stop offset="1" stop-color="#0BB1D3"/>
</linearGradient>
<linearGradient id="paint1_linear_139_274" x1="0" y1="14.9686" x2="5.75958" y2="14.9686" gradientUnits="userSpaceOnUse">
<stop stop-color="#9F2FFF"/>
<stop offset="1" stop-color="#0BB1D3"/>
</linearGradient>
<linearGradient id="paint2_linear_139_274" x1="8.25879" y1="16.1415" x2="21.7588" y2="16.1415" gradientUnits="userSpaceOnUse">
<stop stop-color="#9F2FFF"/>
<stop offset="1" stop-color="#0BB1D3"/>
</linearGradient>
<linearGradient id="paint3_linear_139_274" x1="11.5718" y1="27.5052" x2="18.4257" y2="27.5052" gradientUnits="userSpaceOnUse">
<stop stop-color="#9F2FFF"/>
<stop offset="1" stop-color="#0BB1D3"/>
</linearGradient>
<linearGradient id="paint4_linear_139_274" x1="21.1959" y1="23.4732" x2="25.8823" y2="23.4732" gradientUnits="userSpaceOnUse">
<stop stop-color="#9F2FFF"/>
<stop offset="1" stop-color="#0BB1D3"/>
</linearGradient>
<linearGradient id="paint5_linear_139_274" x1="13.8372" y1="2.88338" x2="16.3124" y2="2.88338" gradientUnits="userSpaceOnUse">
<stop stop-color="#9F2FFF"/>
<stop offset="1" stop-color="#0BB1D3"/>
</linearGradient>
<linearGradient id="paint6_linear_139_274" x1="4.10999" y1="23.484" x2="8.81463" y2="23.484" gradientUnits="userSpaceOnUse">
<stop stop-color="#9F2FFF"/>
<stop offset="1" stop-color="#0BB1D3"/>
</linearGradient>
<linearGradient id="paint7_linear_139_274" x1="4.14014" y1="6.41699" x2="8.79656" y2="6.41699" gradientUnits="userSpaceOnUse">
<stop stop-color="#9F2FFF"/>
<stop offset="1" stop-color="#0BB1D3"/>
</linearGradient>
<linearGradient id="paint8_linear_139_274" x1="21.192" y1="6.42215" x2="25.8722" y2="6.42215" gradientUnits="userSpaceOnUse">
<stop stop-color="#9F2FFF"/>
<stop offset="1" stop-color="#0BB1D3"/>
</linearGradient>
<clipPath id="clip0_139_274">
<rect width="30" height="29.824" fill="white"/>
</clipPath>
</defs>
</svg>
