<svg width="30" height="30" viewBox="0 0 30 30" fill="none" xmlns="http://www.w3.org/2000/svg">
<g clip-path="url(#clip0_148_336)">
<path d="M15 8.04846C13.1567 8.0497 11.3893 8.7825 10.0859 10.0859C8.7825 11.3893 8.0497 13.1567 8.04846 15C8.43752 24.225 21.5625 24.2203 21.9516 15C21.9503 13.1567 21.2176 11.3893 19.9141 10.0859C18.6107 8.7825 16.8433 8.0497 15 8.04846ZM15 20.0766C13.654 20.0753 12.3635 19.5401 11.4117 18.5883C10.46 17.6366 9.9247 16.346 9.92346 15C10.2 8.26409 19.8 8.26409 20.0766 15C20.0753 16.346 19.5401 17.6366 18.5883 18.5883C17.6366 19.5401 16.346 20.0753 15 20.0766Z" fill="url(#paint0_linear_148_336)"/>
<path d="M28.125 12.2484H26.0812C25.8097 11.1427 25.3702 10.0851 24.7781 9.1125L26.25 7.66406C26.3372 7.57699 26.4063 7.4736 26.4535 7.35979C26.5007 7.24598 26.525 7.12398 26.525 7.00078C26.525 6.87758 26.5007 6.75559 26.4535 6.64177C26.4063 6.52796 26.3372 6.42457 26.25 6.3375L23.6625 3.77344C23.4832 3.604 23.2459 3.50959 22.9992 3.50959C22.7525 3.50959 22.5152 3.604 22.3359 3.77344L20.8875 5.22188C19.9149 4.62975 18.8573 4.19027 17.7516 3.91875V1.875C17.7516 1.62636 17.6528 1.3879 17.477 1.21209C17.3012 1.03627 17.0627 0.9375 16.8141 0.9375H13.1859C12.9373 0.9375 12.6988 1.03627 12.523 1.21209C12.3472 1.3879 12.2484 1.62636 12.2484 1.875V3.91875C11.1427 4.19027 10.0851 4.62975 9.1125 5.22188L7.66406 3.77344C7.57699 3.68627 7.4736 3.61712 7.35979 3.56994C7.24598 3.52276 7.12398 3.49848 7.00078 3.49848C6.87758 3.49848 6.75559 3.52276 6.64177 3.56994C6.52796 3.61712 6.42457 3.68627 6.3375 3.77344L3.77344 6.3375C3.68627 6.42457 3.61712 6.52796 3.56994 6.64177C3.52276 6.75559 3.49848 6.87758 3.49848 7.00078C3.49848 7.12398 3.52276 7.24598 3.56994 7.35979C3.61712 7.4736 3.68627 7.57699 3.77344 7.66406L5.22188 9.1125C4.62975 10.0851 4.19027 11.1427 3.91875 12.2484H1.875C1.62636 12.2484 1.3879 12.3472 1.21209 12.523C1.03627 12.6988 0.9375 12.9373 0.9375 13.1859V16.8141C0.9375 17.0627 1.03627 17.3012 1.21209 17.477C1.3879 17.6528 1.62636 17.7516 1.875 17.7516H3.91875C4.19027 18.8573 4.62975 19.9149 5.22188 20.8875L3.77344 22.3359C3.68627 22.423 3.61712 22.5264 3.56994 22.6402C3.52276 22.754 3.49848 22.876 3.49848 22.9992C3.49848 23.1224 3.52276 23.2444 3.56994 23.3582C3.61712 23.472 3.68627 23.5754 3.77344 23.6625L6.3375 26.25C6.42457 26.3372 6.52796 26.4063 6.64177 26.4535C6.75559 26.5007 6.87758 26.525 7.00078 26.525C7.12398 26.525 7.24598 26.5007 7.35979 26.4535C7.4736 26.4063 7.57699 26.3372 7.66406 26.25L9.1125 24.8016C10.0851 25.3937 11.1427 25.8332 12.2484 26.1047V28.125C12.2484 28.3736 12.3472 28.6121 12.523 28.7879C12.6988 28.9637 12.9373 29.0625 13.1859 29.0625H16.8141C17.0627 29.0625 17.3012 28.9637 17.477 28.7879C17.6528 28.6121 17.7516 28.3736 17.7516 28.125V26.0812C18.8573 25.8097 19.9149 25.3702 20.8875 24.7781L22.3359 26.25C22.423 26.3372 22.5264 26.4063 22.6402 26.4535C22.754 26.5007 22.876 26.525 22.9992 26.525C23.1224 26.525 23.2444 26.5007 23.3582 26.4535C23.472 26.4063 23.5754 26.3372 23.6625 26.25L26.25 23.6625C26.3372 23.5754 26.4063 23.472 26.4535 23.3582C26.5007 23.2444 26.525 23.1224 26.525 22.9992C26.525 22.876 26.5007 22.754 26.4535 22.6402C26.4063 22.5264 26.3372 22.423 26.25 22.3359L24.8016 20.8875C25.3937 19.9149 25.8332 18.8573 26.1047 17.7516H28.125C28.3736 17.7516 28.6121 17.6528 28.7879 17.477C28.9637 17.3012 29.0625 17.0627 29.0625 16.8141V13.1859C29.0625 12.9373 28.9637 12.6988 28.7879 12.523C28.6121 12.3472 28.3736 12.2484 28.125 12.2484ZM27.1875 15.8766H25.3125C25.1571 15.879 25.0046 15.9186 24.8676 15.992C24.7306 16.0654 24.6131 16.1704 24.525 16.2984C24.4598 16.4091 24.4123 16.5293 24.3844 16.6547C24.1533 18.0311 23.6132 19.3373 22.8047 20.475C22.7329 20.5799 22.6819 20.6977 22.6547 20.8219C22.6221 20.9746 22.6282 21.1331 22.6724 21.2829C22.7166 21.4327 22.7975 21.5691 22.9078 21.6797L24.2297 22.9969L22.9875 24.2391L21.6703 22.9172C21.5597 22.8069 21.4233 22.7259 21.2735 22.6817C21.1237 22.6375 20.9653 22.6315 20.8125 22.6641C20.6887 22.6925 20.5711 22.7433 20.4656 22.8141C19.329 23.6146 18.0263 24.1482 16.6547 24.375C16.5008 24.4075 16.3565 24.4748 16.2328 24.5719C16.1211 24.6602 16.0309 24.7727 15.9692 24.9011C15.9075 25.0294 15.8758 25.1701 15.8766 25.3125V27.1875H14.1234V25.3125C14.1228 25.1717 14.0904 25.0328 14.0288 24.9062C13.9671 24.7796 13.8777 24.6686 13.7672 24.5812C13.6435 24.4842 13.4992 24.4168 13.3453 24.3844C11.9689 24.1533 10.6627 23.6132 9.525 22.8047C9.4195 22.7339 9.30194 22.6831 9.17813 22.6547C9.02537 22.6221 8.8669 22.6282 8.71709 22.6724C8.56728 22.7166 8.43089 22.7975 8.32031 22.9078L7.00312 24.2297L5.76094 22.9875L7.08281 21.6703C7.19312 21.5597 7.27406 21.4233 7.31826 21.2735C7.36247 21.1237 7.36854 20.9653 7.33594 20.8125C7.3087 20.6883 7.25777 20.5705 7.18594 20.4656C6.38539 19.329 5.85181 18.0263 5.625 16.6547C5.59259 16.4994 5.52527 16.3535 5.42812 16.2281C5.33937 16.1173 5.22658 16.028 5.09828 15.9671C4.96998 15.9062 4.82952 15.8752 4.6875 15.8766H2.8125V14.1234H4.6875C4.86211 14.1216 5.03273 14.0711 5.18015 13.9775C5.32757 13.8839 5.44593 13.751 5.52187 13.5938C5.78189 12.1349 6.34912 10.748 7.18594 9.525C7.28177 9.38634 7.33845 9.22441 7.35 9.05625C7.36045 8.92234 7.342 8.78774 7.2959 8.66158C7.2498 8.53542 7.17713 8.42063 7.08281 8.325L5.76094 7.00781L7.00312 5.76562L8.32031 7.0875C8.47636 7.2429 8.68214 7.3384 8.90156 7.35725C9.12098 7.37611 9.34004 7.31712 9.52031 7.19063C10.6666 6.38779 11.9786 5.85274 13.3594 5.625C13.5352 5.58334 13.6969 5.49603 13.8281 5.37187C13.9173 5.2845 13.9881 5.18019 14.0364 5.06509C14.0847 4.94998 14.1095 4.82639 14.1094 4.70156V2.8125H15.8625V4.6875C15.8624 4.81233 15.8872 4.93592 15.9355 5.05103C15.9838 5.16613 16.0546 5.27043 16.1437 5.35781C16.2837 5.48868 16.4574 5.57796 16.6453 5.61562C18.104 5.88786 19.4879 6.46794 20.7047 7.31719C20.8667 7.3681 21.0395 7.37406 21.2046 7.33444C21.3697 7.29481 21.5209 7.21108 21.6422 7.09219L22.9594 5.77031L24.2016 7.0125L22.8797 8.32969C22.7854 8.42532 22.7127 8.5401 22.6666 8.66627C22.6205 8.79243 22.6021 8.92702 22.6125 9.06094C22.6241 9.22909 22.6807 9.39103 22.7766 9.52969C23.626 10.7481 24.2061 12.1336 24.4781 13.5938C24.5541 13.751 24.6724 13.8839 24.8198 13.9775C24.9673 14.0711 25.1379 14.1216 25.3125 14.1234H27.1875V15.8766Z" fill="url(#paint1_linear_148_336)"/>
</g>
<defs>
<linearGradient id="paint0_linear_148_336" x1="8.04846" y1="14.9813" x2="21.9516" y2="14.9813" gradientUnits="userSpaceOnUse">
<stop stop-color="#17A6D7"/>
<stop offset="1" stop-color="#9D31FE"/>
</linearGradient>
<linearGradient id="paint1_linear_148_336" x1="0.9375" y1="15" x2="29.0625" y2="15" gradientUnits="userSpaceOnUse">
<stop stop-color="#17A6D7"/>
<stop offset="1" stop-color="#9D31FE"/>
</linearGradient>
<clipPath id="clip0_148_336">
<rect width="30" height="30" fill="white"/>
</clipPath>
</defs>
</svg>
