<svg width="30" height="30" viewBox="0 0 30 30" fill="none" xmlns="http://www.w3.org/2000/svg">
<g clip-path="url(#clip0_139_228)">
<path d="M27 3C25.6764 3 24.6 4.0764 24.6 5.4V13.2024C24.0252 13.2276 23.4882 13.4634 23.079 13.8726L18.6 18.3516V29.4H26.4V22.4484L29.4 19.4484V5.4C29.4 4.0764 28.3236 3 27 3ZM28.2 18.9516L25.2 21.9516V28.2H19.8V18.8484L23.9274 14.721C24.1314 14.517 24.414 14.4 24.7032 14.4C25.308 14.4 25.8 14.892 25.8 15.4968C25.8 15.7854 25.683 16.0686 25.479 16.2726L22.9758 18.7758L23.8242 19.6242L26.3274 17.121C26.7612 16.6872 27 16.1106 27 15.4968C27 14.6274 26.514 13.869 25.8 13.4796V5.4C25.8 4.7382 26.3382 4.2 27 4.2C27.6618 4.2 28.2 4.7382 28.2 5.4V18.9516Z" fill="url(#paint0_linear_139_228)"/>
<path d="M5.39998 13.2024V5.4C5.39998 4.0764 4.32358 3 2.99998 3C1.67638 3 0.599976 4.0764 0.599976 5.4V19.4484L3.59998 22.4484V29.4H11.4V18.3516L6.92098 13.8726C6.51178 13.4628 5.97478 13.2276 5.39998 13.2024ZM10.2 28.2H4.79998V21.9516L1.79998 18.9516V5.4C1.79998 4.7382 2.33818 4.2 2.99998 4.2C3.66178 4.2 4.19998 4.7382 4.19998 5.4V13.4796C3.48598 13.869 2.99998 14.6274 2.99998 15.4968C2.99998 16.11 3.23878 16.6872 3.67258 17.121L6.17578 19.6242L7.02418 18.7758L4.52098 16.2726C4.31698 16.0686 4.19998 15.786 4.19998 15.4968C4.19998 14.892 4.69198 14.4 5.29678 14.4C5.58538 14.4 5.86858 14.517 6.07258 14.721L10.2 18.8484V28.2Z" fill="url(#paint1_linear_139_228)"/>
<path d="M12 2.39998C12 1.40758 11.1924 0.599976 10.2 0.599976C9.20756 0.599976 8.39996 1.40758 8.39996 2.39998C8.39996 3.18118 8.90336 3.84118 9.59996 4.08958V5.64838L12 8.04838V9.59998H13.2V7.55158L10.8 5.15158V4.08958C11.4966 3.84118 12 3.18118 12 2.39998ZM10.2 1.79998C10.5312 1.79998 10.8 2.06878 10.8 2.39998C10.8 2.73118 10.5312 2.99998 10.2 2.99998C9.86876 2.99998 9.59996 2.73118 9.59996 2.39998C9.59996 2.06878 9.86876 1.79998 10.2 1.79998Z" fill="url(#paint2_linear_139_228)"/>
<path d="M15.6 9.59998V4.08958C16.2966 3.84118 16.8 3.18118 16.8 2.39998C16.8 1.40758 15.9924 0.599976 15 0.599976C14.0076 0.599976 13.2 1.40758 13.2 2.39998C13.2 3.18118 13.7034 3.84118 14.4 4.08958V9.59998H15.6ZM15 1.79998C15.3312 1.79998 15.6 2.06878 15.6 2.39998C15.6 2.73118 15.3312 2.99998 15 2.99998C14.6688 2.99998 14.4 2.73118 14.4 2.39998C14.4 2.06878 14.6688 1.79998 15 1.79998Z" fill="url(#paint3_linear_139_228)"/>
<path d="M20.4 4.08958C21.0966 3.84118 21.6 3.18118 21.6 2.39998C21.6 1.40758 20.7924 0.599976 19.8 0.599976C18.8076 0.599976 18 1.40758 18 2.39998C18 3.18118 18.5034 3.84118 19.2 4.08958V5.15158L16.8 7.55158V9.59998H18V8.04838L20.4 5.64838V4.08958ZM19.8 1.79998C20.1312 1.79998 20.4 2.06878 20.4 2.39998C20.4 2.73118 20.1312 2.99998 19.8 2.99998C19.4688 2.99998 19.2 2.73118 19.2 2.39998C19.2 2.06878 19.4688 1.79998 19.8 1.79998Z" fill="url(#paint4_linear_139_228)"/>
<path d="M20.4 8.40002H19.2V10.8H10.8V8.40002H9.59998V12H20.4V8.40002Z" fill="url(#paint5_linear_139_228)"/>
</g>
<defs>
<linearGradient id="paint0_linear_139_228" x1="18.6" y1="16.2" x2="29.4" y2="16.2" gradientUnits="userSpaceOnUse">
<stop stop-color="#9F2FFF"/>
<stop offset="1" stop-color="#0BB1D3"/>
</linearGradient>
<linearGradient id="paint1_linear_139_228" x1="0.599976" y1="16.2" x2="11.4" y2="16.2" gradientUnits="userSpaceOnUse">
<stop stop-color="#9F2FFF"/>
<stop offset="1" stop-color="#0BB1D3"/>
</linearGradient>
<linearGradient id="paint2_linear_139_228" x1="8.39996" y1="5.09998" x2="13.2" y2="5.09998" gradientUnits="userSpaceOnUse">
<stop stop-color="#9F2FFF"/>
<stop offset="1" stop-color="#0BB1D3"/>
</linearGradient>
<linearGradient id="paint3_linear_139_228" x1="13.2" y1="5.09998" x2="16.8" y2="5.09998" gradientUnits="userSpaceOnUse">
<stop stop-color="#9F2FFF"/>
<stop offset="1" stop-color="#0BB1D3"/>
</linearGradient>
<linearGradient id="paint4_linear_139_228" x1="16.8" y1="5.09998" x2="21.6" y2="5.09998" gradientUnits="userSpaceOnUse">
<stop stop-color="#9F2FFF"/>
<stop offset="1" stop-color="#0BB1D3"/>
</linearGradient>
<linearGradient id="paint5_linear_139_228" x1="9.59998" y1="10.2" x2="20.4" y2="10.2" gradientUnits="userSpaceOnUse">
<stop stop-color="#9F2FFF"/>
<stop offset="1" stop-color="#0BB1D3"/>
</linearGradient>
<clipPath id="clip0_139_228">
<rect width="30" height="30" fill="white"/>
</clipPath>
</defs>
</svg>
