<svg width="30" height="30" viewBox="0 0 30 30" fill="none" xmlns="http://www.w3.org/2000/svg">
<g clip-path="url(#clip0_135_261)">
<path d="M29.5312 23.9062H28.1812V18.75C28.1812 18.6257 28.1319 18.5065 28.044 18.4185C27.956 18.3306 27.8368 18.2812 27.7125 18.2812H24.5438V7.5C24.5438 7.37568 24.4944 7.25645 24.4065 7.16854C24.3186 7.08064 24.1993 7.03125 24.075 7.03125H20.9109V1.875C20.9109 1.75068 20.8616 1.63145 20.7736 1.54354C20.6857 1.45564 20.5665 1.40625 20.4422 1.40625H9.54375C9.41943 1.40625 9.3002 1.45564 9.21229 1.54354C9.12439 1.63145 9.075 1.75068 9.075 1.875V7.03125H5.91094C5.78662 7.03125 5.66739 7.08064 5.57948 7.16854C5.49157 7.25645 5.44219 7.37568 5.44219 7.5V18.2812H2.27344C2.14912 18.2812 2.02989 18.3306 1.94198 18.4185C1.85407 18.5065 1.80469 18.6257 1.80469 18.75V23.9062H0.46875C0.34443 23.9062 0.225201 23.9556 0.137294 24.0435C0.049386 24.1315 0 24.2507 0 24.375C0 24.4993 0.049386 24.6185 0.137294 24.7065C0.225201 24.7944 0.34443 24.8438 0.46875 24.8438H29.5312C29.6556 24.8438 29.7748 24.7944 29.8627 24.7065C29.9506 24.6185 30 24.4993 30 24.375C30 24.2507 29.9506 24.1315 29.8627 24.0435C29.7748 23.9556 29.6556 23.9062 29.5312 23.9062ZM23.6344 7.96875V18.2812H23.1656V8.4375H21.3656V18.2812H20.8969V7.96875H23.6344ZM22.725 12.1875V14.5312H21.8203V12.1875H22.725ZM21.8203 11.25V8.90625H22.725V11.25H21.8203ZM22.725 15.4688V17.8125H21.8203V15.4688H22.725ZM2.72813 19.2188H5.45625V23.9062H2.72813V19.2188ZM6.36562 7.96875H9.08906V23.9062H6.36562V7.96875ZM9.99844 2.34375H11.8172V15C11.7999 15.0691 11.7985 15.1413 11.8133 15.211C11.828 15.2807 11.8585 15.3461 11.9023 15.4023C11.9462 15.4585 12.0022 15.5039 12.0663 15.5352C12.1303 15.5665 12.2006 15.5827 12.2719 15.5827C12.3431 15.5827 12.4135 15.5665 12.4775 15.5352C12.5415 15.5039 12.5976 15.4585 12.6414 15.4023C12.6853 15.3461 12.7157 15.2807 12.7305 15.211C12.7452 15.1413 12.7439 15.0691 12.7266 15V2.34375H20.0016V18.2812H13.6359C13.5116 18.2812 13.3924 18.3306 13.3045 18.4185C13.2166 18.5065 13.1672 18.6257 13.1672 18.75V23.9062H9.99844V2.34375ZM14.0906 19.2188H27.2719V23.9062H14.0906V19.2188Z" fill="url(#paint0_linear_135_261)"/>
<path d="M6.82031 8.4375V18.2812H8.63437V8.4375H6.82031ZM8.17969 17.8125H7.275V15.4688H8.17969V17.8125ZM8.17969 14.5312H7.275V12.1875H8.17969V14.5312ZM8.17969 11.25H7.275V8.90625H8.17969V11.25Z" fill="url(#paint1_linear_135_261)"/>
</g>
<defs>
<linearGradient id="paint0_linear_135_261" x1="0.0140625" y1="13.125" x2="29.9859" y2="13.125" gradientUnits="userSpaceOnUse">
<stop stop-color="#9F2FFF"/>
<stop offset="1" stop-color="#0BB1D3"/>
</linearGradient>
<linearGradient id="paint1_linear_135_261" x1="6.82031" y1="13.3594" x2="8.63437" y2="13.3594" gradientUnits="userSpaceOnUse">
<stop stop-color="#9F2FFF"/>
<stop offset="1" stop-color="#0BB1D3"/>
</linearGradient>
<clipPath id="clip0_135_261">
<rect width="30" height="30" fill="white"/>
</clipPath>
</defs>
</svg>
